# MagicaVoxel @ Ephtracy

# group
o 

# material
mtllib world_cards.mtl
usemtl palette

# normals
vn -1 0 0
vn 1 0 0
vn 0 0 1
vn 0 0 -1
vn 0 -1 0
vn 0 1 0

# texcoords
vt 0.0605469 0.5
vt 0.0683594 0.5
vt 0.0722656 0.5
vt 0.130859 0.5

# verts
v -2 0 2
v -2 0 -2
v -2 0.1 2
v -2 0.1 -2
v -1.6 0.1 0.6
v -1.6 0.1 -0.8
v -1.6 0.4 0.6
v -1.6 0.4 -0.8
v -1.5 0.2 0.6
v -1.5 0.2 0.5
v -1.5 0.2 -0.7
v -1.5 0.2 -0.8
v -1.5 0.3 0.6
v -1.5 0.3 0.5
v -1.5 0.3 -0.7
v -1.5 0.3 -0.8
v -0.7 0.1 0.6
v -0.7 0.1 -0.8
v -0.7 0.2 0.6
v -0.7 0.2 0.5
v -0.7 0.2 -0.7
v -0.7 0.2 -0.8
v -0.7 0.3 0.6
v -0.7 0.3 0.5
v -0.7 0.3 -0.7
v -0.7 0.3 -0.8
v -0.7 0.4 0.6
v -0.7 0.4 -0.8
v 2 0 2
v 2 0 -2
v 2 0.1 2
v 2 0.1 -2
v -2 0 2
v -2 0.1 2
v 2 0 2
v 2 0.1 2
v -1.6 0.1 0.6
v -1.6 0.4 0.6
v -1.5 0.2 0.6
v -1.5 0.3 0.6
v -0.7 0.1 0.6
v -0.7 0.2 0.6
v -0.7 0.3 0.6
v -0.7 0.4 0.6
v -1.5 0.2 0.5
v -1.5 0.3 0.5
v -0.7 0.2 0.5
v -0.7 0.3 0.5
v -1.5 0.2 -0.7
v -1.5 0.3 -0.7
v -0.7 0.2 -0.7
v -0.7 0.3 -0.7
v -1.6 0.1 -0.8
v -1.6 0.4 -0.8
v -1.5 0.2 -0.8
v -1.5 0.3 -0.8
v -0.7 0.1 -0.8
v -0.7 0.2 -0.8
v -0.7 0.3 -0.8
v -0.7 0.4 -0.8
v -2 0 -2
v -2 0.1 -2
v 2 0 -2
v 2 0.1 -2
v -2 0 2
v 2 0 2
v -2 0 -2
v 2 0 -2
v -1.5 0.3 0.6
v -0.7 0.3 0.6
v -1.5 0.3 0.5
v -0.7 0.3 0.5
v -1.5 0.3 -0.7
v -0.7 0.3 -0.7
v -1.5 0.3 -0.8
v -0.7 0.3 -0.8
v -2 0.1 2
v 2 0.1 2
v -1.6 0.1 0.6
v -0.7 0.1 0.6
v -1.6 0.1 -0.8
v -0.7 0.1 -0.8
v -2 0.1 -2
v 2 0.1 -2
v -1.5 0.2 0.6
v -0.7 0.2 0.6
v -1.5 0.2 0.5
v -0.7 0.2 0.5
v -1.5 0.2 -0.7
v -0.7 0.2 -0.7
v -1.5 0.2 -0.8
v -0.7 0.2 -0.8
v -1.6 0.4 0.6
v -0.7 0.4 0.6
v -1.5 0.4 -0.2
v -0.8 0.4 -0.2
v -1.5 0.4 -0.7
v -0.8 0.4 -0.7
v -1.6 0.4 -0.8
v -0.7 0.4 -0.8

# faces
f 3/4/1 2/4/1 1/4/1
f 4/4/1 2/4/1 3/4/1
f 7/2/1 6/2/1 5/2/1
f 8/2/1 6/2/1 7/2/1
f 9/2/2 10/2/2 13/2/2
f 13/2/2 10/2/2 14/2/2
f 11/2/2 12/2/2 15/2/2
f 15/2/2 12/2/2 16/2/2
f 17/2/2 18/2/2 19/2/2
f 19/2/2 18/2/2 20/2/2
f 20/2/2 18/2/2 21/2/2
f 21/2/2 18/2/2 22/2/2
f 20/1/2 21/1/2 24/1/2
f 24/1/2 21/1/2 25/1/2
f 23/2/2 24/2/2 27/2/2
f 25/2/2 26/2/2 27/2/2
f 24/2/2 25/2/2 27/2/2
f 27/2/2 26/2/2 28/2/2
f 29/4/2 30/4/2 31/4/2
f 31/4/2 30/4/2 32/4/2
f 35/4/3 34/4/3 33/4/3
f 36/4/3 34/4/3 35/4/3
f 39/2/3 38/2/3 37/2/3
f 40/2/3 38/2/3 39/2/3
f 41/2/3 39/2/3 37/2/3
f 42/2/3 39/2/3 41/2/3
f 43/2/3 38/2/3 40/2/3
f 44/2/3 38/2/3 43/2/3
f 47/1/3 46/1/3 45/1/3
f 48/1/3 46/1/3 47/1/3
f 49/1/4 50/1/4 51/1/4
f 51/1/4 50/1/4 52/1/4
f 53/2/4 54/2/4 55/2/4
f 55/2/4 54/2/4 56/2/4
f 53/2/4 55/2/4 57/2/4
f 57/2/4 55/2/4 58/2/4
f 56/2/4 54/2/4 59/2/4
f 59/2/4 54/2/4 60/2/4
f 61/4/4 62/4/4 63/4/4
f 63/4/4 62/4/4 64/4/4
f 67/4/5 66/4/5 65/4/5
f 68/4/5 66/4/5 67/4/5
f 71/2/5 70/2/5 69/2/5
f 72/2/5 70/2/5 71/2/5
f 75/2/5 74/2/5 73/2/5
f 76/2/5 74/2/5 75/2/5
f 77/4/6 78/4/6 79/4/6
f 79/4/6 78/4/6 80/4/6
f 77/4/6 79/4/6 81/4/6
f 80/4/6 78/4/6 82/4/6
f 77/4/6 81/4/6 83/4/6
f 81/4/6 82/4/6 83/4/6
f 82/4/6 78/4/6 84/4/6
f 83/4/6 82/4/6 84/4/6
f 85/2/6 86/2/6 87/2/6
f 87/2/6 86/2/6 88/2/6
f 89/2/6 90/2/6 91/2/6
f 91/2/6 90/2/6 92/2/6
f 93/2/6 94/2/6 95/2/6
f 95/2/6 94/2/6 96/2/6
f 93/2/6 95/2/6 97/2/6
f 95/3/6 96/3/6 97/3/6
f 96/2/6 94/2/6 98/2/6
f 97/3/6 96/3/6 98/3/6
f 93/2/6 97/2/6 99/2/6
f 97/2/6 98/2/6 99/2/6
f 98/2/6 94/2/6 100/2/6
f 99/2/6 98/2/6 100/2/6
